<svg xmlns="http://www.w3.org/2000/svg" xmlns:xlink="http://www.w3.org/1999/xlink" width="500" zoomAndPan="magnify" viewBox="0 0 375 374.999991" height="500" preserveAspectRatio="xMidYMid meet" version="1.0"><defs><g/><clipPath id="id1"><path d="M 46.257812 140.1875 L 140.757812 140.1875 L 140.757812 234.6875 L 46.257812 234.6875 Z M 46.257812 140.1875 " clip-rule="nonzero"/></clipPath></defs><g fill="#000000" fill-opacity="1"><g transform="translate(148.665962, 142.797245)"><g/></g></g><g fill="#000000" fill-opacity="1"><g transform="translate(158.448304, 142.797245)"><g/></g></g><g fill="#000000" fill-opacity="1"><g transform="translate(148.665962, 187.886022)"><g/></g></g><g fill="#000000" fill-opacity="1"><g transform="translate(158.444105, 187.886022)"><g><path d="M 2.820312 0 L 9.503906 0 C 9.121094 -1.359375 8.878906 -3.480469 8.878906 -5.851562 L 8.878906 -18.523438 C 8.878906 -20.890625 9.121094 -23.015625 9.503906 -24.375 L 2.820312 -24.375 C 3.203125 -23.015625 3.445312 -20.890625 3.445312 -18.523438 L 3.445312 -5.851562 C 3.445312 -3.480469 3.238281 -1.359375 2.820312 0 Z M 2.820312 0 "/></g></g></g><g fill="#000000" fill-opacity="1"><g transform="translate(170.802568, 187.886022)"><g><path d="M 21.171875 0.523438 C 23.328125 0.523438 25.523438 -0.0703125 26.394531 -0.242188 L 26.707031 -5.605469 C 25.242188 -5.015625 22.492188 -4.597656 19.5 -4.597656 L 8.878906 -4.597656 L 8.878906 -17.96875 C 8.878906 -20.335938 9.15625 -23.015625 9.503906 -24.375 L 2.820312 -24.375 C 3.203125 -23.015625 3.480469 -20.890625 3.480469 -18.523438 L 3.480469 -5.851562 C 3.480469 -3.480469 3.238281 -0.871094 2.820312 0.523438 C 4.421875 0.0703125 7.101562 -0.488281 10.304688 -0.488281 C 14.589844 -0.488281 17.164062 0.523438 21.171875 0.523438 Z M 21.171875 0.523438 "/></g></g></g><g fill="#000000" fill-opacity="1"><g transform="translate(198.478572, 187.886022)"><g><path d="M 2.820312 0 L 9.503906 0 C 9.054688 -1.460938 8.878906 -3.34375 8.878906 -5.640625 L 8.878906 -9.957031 L 24.09375 -9.957031 L 24.09375 -5.640625 C 24.09375 -3.273438 23.816406 -1.359375 23.46875 0 L 30.152344 0 C 29.734375 -1.359375 29.527344 -3.480469 29.527344 -5.851562 L 29.527344 -18.523438 C 29.527344 -20.890625 29.769531 -23.015625 30.152344 -24.375 L 23.46875 -24.375 C 23.851562 -23.015625 24.09375 -21.101562 24.09375 -18.734375 L 24.09375 -14.484375 L 8.878906 -14.484375 L 8.878906 -18.734375 C 8.878906 -21.066406 9.121094 -22.945312 9.503906 -24.375 L 2.820312 -24.375 C 3.203125 -23.015625 3.480469 -20.890625 3.480469 -18.523438 L 3.480469 -5.851562 C 3.480469 -3.480469 3.238281 -1.359375 2.820312 0 Z M 2.820312 0 "/></g></g></g><g fill="#000000" fill-opacity="1"><g transform="translate(231.446091, 187.886022)"><g><path d="M -0.417969 0 L 6.40625 0 C 6.546875 -0.90625 7.136719 -2.054688 7.972656 -3.832031 L 8.984375 -5.710938 L 22.808594 -5.710938 L 23.816406 -3.863281 C 24.828125 -2.054688 25.242188 -0.941406 25.382812 0 L 32.207031 0 C 31.269531 -1.359375 29.910156 -3.585938 28.761719 -5.851562 L 22.074219 -18.558594 C 21.136719 -20.472656 20.507812 -22.808594 20.195312 -24.375 L 11.664062 -24.375 C 11.421875 -23.015625 10.828125 -20.820312 9.679688 -18.523438 L 3.0625 -5.851562 C 1.878906 -3.621094 0.523438 -1.359375 -0.417969 0 Z M 11.003906 -9.855469 L 14.207031 -16.050781 C 14.832031 -17.410156 15.25 -18.523438 15.738281 -19.917969 L 16.050781 -19.917969 C 16.503906 -18.558594 16.957031 -17.375 17.550781 -16.085938 L 20.789062 -9.855469 Z M 11.003906 -9.855469 "/></g></g></g><g fill="#000000" fill-opacity="1"><g transform="translate(148.665962, 232.974799)"><g><path d="M 2.820312 0 L 9.503906 0 C 9.191406 -1.21875 8.878906 -3.796875 8.878906 -6.234375 L 8.878906 -17.652344 L 9.296875 -17.652344 L 26.21875 0 L 31.199219 0 L 31.199219 -18.523438 C 31.199219 -20.890625 31.441406 -23.015625 31.824219 -24.375 L 25.140625 -24.375 C 25.453125 -23.257812 25.765625 -21.03125 25.765625 -18.628906 L 25.765625 -7.277344 L 25.3125 -7.277344 L 9.121094 -24.375 L 2.820312 -24.375 C 3.238281 -23.015625 3.480469 -20.890625 3.480469 -18.523438 L 3.480469 -5.851562 C 3.480469 -3.480469 3.203125 -1.359375 2.820312 0 Z M 2.820312 0 "/></g></g></g><g fill="#000000" fill-opacity="1"><g transform="translate(183.296378, 232.974799)"><g/></g></g><g fill="#737373" fill-opacity="1"><g transform="translate(151.362782, 208.493307)"><g><path d="M 2.550781 -3.695312 L 5.164062 0 L 7.617188 0 L 4.324219 -4.132812 L 7.496094 -8.261719 L 5.164062 -8.261719 L 2.550781 -4.570312 L 2.550781 -8.261719 L 0.730469 -8.261719 L 0.730469 0 L 2.550781 0 Z M 2.550781 -3.695312 "/></g></g></g><g fill="#737373" fill-opacity="1"><g transform="translate(166.570762, 208.493307)"><g><path d="M 5.273438 -8.261719 L 5.273438 -4.96875 L 2.550781 -4.96875 L 2.550781 -8.261719 L 0.730469 -8.261719 L 0.730469 0 L 2.550781 0 L 2.550781 -3.316406 L 5.273438 -3.316406 L 5.273438 0 L 7.21875 0 L 7.21875 -8.261719 Z M 5.273438 -8.261719 "/></g></g></g><g fill="#737373" fill-opacity="1"><g transform="translate(182.227945, 208.493307)"><g><path d="M 7.109375 -4.144531 C 7.109375 -2.867188 5.953125 -1.699219 4.679688 -1.699219 C 3.402344 -1.699219 2.246094 -2.867188 2.246094 -4.144531 C 2.246094 -5.417969 3.402344 -6.574219 4.679688 -6.574219 C 5.953125 -6.574219 7.109375 -5.417969 7.109375 -4.144531 Z M 8.929688 -4.132812 C 8.929688 -6.414062 6.960938 -8.382812 4.679688 -8.382812 C 2.394531 -8.382812 0.425781 -6.414062 0.425781 -4.132812 C 0.425781 -1.847656 2.394531 0.121094 4.679688 0.121094 C 6.960938 0.121094 8.929688 -1.847656 8.929688 -4.132812 Z M 8.929688 -4.132812 "/></g></g></g><g fill="#737373" fill-opacity="1"><g transform="translate(199.293439, 208.493307)"><g><path d="M 7.21875 0 L 7.21875 -8.261719 L 5.394531 -8.261719 L 5.394531 -3.109375 L 2.550781 -8.261719 L 0.730469 -8.261719 L 0.730469 0 L 2.550781 0 L 2.550781 -5.152344 L 5.394531 0 Z M 7.21875 0 "/></g></g></g><g fill="#737373" fill-opacity="1"><g transform="translate(214.950621, 208.493307)"><g><path d="M 2.527344 -1.675781 L 2.527344 -6.574219 L 3.074219 -6.574219 C 4.484375 -6.574219 5.429688 -5.503906 5.429688 -4.132812 C 5.429688 -2.757812 4.472656 -1.675781 3.074219 -1.675781 Z M 0.730469 -8.261719 L 0.730469 0 L 3.183594 0 C 5.527344 0 7.289062 -1.796875 7.289062 -4.132812 C 7.289062 -6.464844 5.515625 -8.261719 3.183594 -8.261719 Z M 0.730469 -8.261719 "/></g></g></g><g fill="#737373" fill-opacity="1"><g transform="translate(230.377135, 208.493307)"><g><path d="M 5.222656 -3.160156 L 3.132812 -3.160156 L 4.179688 -6.097656 Z M 8.3125 0 L 4.957031 -8.261719 L 3.414062 -8.261719 L 0.0625 0 L 2.015625 0 L 2.613281 -1.664062 L 5.757812 -1.664062 L 6.355469 0 Z M 8.3125 0 "/></g></g></g><g fill="#737373" fill-opacity="1"><g transform="translate(246.459236, 208.493307)"><g><path d="M 2.550781 -3.695312 L 5.164062 0 L 7.617188 0 L 4.324219 -4.132812 L 7.496094 -8.261719 L 5.164062 -8.261719 L 2.550781 -4.570312 L 2.550781 -8.261719 L 0.730469 -8.261719 L 0.730469 0 L 2.550781 0 Z M 2.550781 -3.695312 "/></g></g></g><g fill="#737373" fill-opacity="1"><g transform="translate(261.667214, 208.493307)"><g><path d="M 5.515625 -1.652344 L 2.550781 -1.652344 L 2.550781 -3.316406 L 5.394531 -3.316406 L 5.394531 -4.96875 L 2.550781 -4.96875 L 2.550781 -6.609375 L 5.515625 -6.609375 L 5.515625 -8.261719 L 0.730469 -8.261719 L 0.730469 0 L 5.515625 0 Z M 5.515625 -1.652344 "/></g></g></g><g fill="#737373" fill-opacity="1"><g transform="translate(275.624725, 208.493307)"><g><path d="M 2.550781 -2.953125 L 2.5625 -2.953125 L 4.53125 0 L 6.839844 0 L 4.472656 -3.039062 C 5.515625 -3.292969 6.355469 -4.214844 6.355469 -5.613281 C 6.355469 -7.179688 5.164062 -8.261719 3.828125 -8.261719 L 0.730469 -8.261719 L 0.730469 0 L 2.550781 0 Z M 3.523438 -6.828125 C 4.058594 -6.828125 4.617188 -6.367188 4.617188 -5.613281 C 4.617188 -4.824219 4.058594 -4.386719 3.523438 -4.386719 L 2.550781 -4.386719 L 2.550781 -6.828125 Z M 3.523438 -6.828125 "/></g></g></g><g clip-path="url(#id1)"><path fill="#737373" d="M 48.117188 141.09375 C 49.152344 140.28125 50.507812 139.996094 51.785156 140.316406 L 137.304688 161.695312 C 139.207031 162.171875 140.542969 163.882812 140.542969 165.84375 L 140.542969 208.601562 C 140.542969 210.566406 139.207031 212.277344 137.304688 212.75 L 51.785156 234.132812 C 50.507812 234.449219 49.152344 234.164062 48.117188 233.355469 C 47.078125 232.542969 46.472656 231.300781 46.472656 229.984375 L 46.472656 144.464844 C 46.472656 143.144531 47.078125 141.902344 48.117188 141.09375 Z M 55.023438 149.941406 L 55.023438 224.507812 L 131.992188 205.265625 L 131.992188 169.183594 Z M 55.023438 149.941406 " fill-opacity="1" fill-rule="evenodd"/></g><g fill="#000000" fill-opacity="1"><g transform="translate(56.876727, 196.968443)"><g><path d="M 12.703125 -1.0625 C 12.578125 -1.0625 12.421875 -1.125 12.234375 -1.25 L 1.671875 -8.421875 C 1.390625 -8.609375 1.179688 -8.796875 1.046875 -8.984375 C 0.910156 -9.179688 0.84375 -9.414062 0.84375 -9.6875 L 0.84375 -10.609375 C 0.84375 -10.878906 0.90625 -11.101562 1.03125 -11.28125 C 1.15625 -11.457031 1.367188 -11.648438 1.671875 -11.859375 L 12.234375 -19.03125 C 12.421875 -19.144531 12.578125 -19.203125 12.703125 -19.203125 C 12.867188 -19.203125 13.007812 -19.148438 13.125 -19.046875 C 13.238281 -18.941406 13.296875 -18.789062 13.296875 -18.59375 L 13.296875 -15.328125 C 13.296875 -15.035156 13.222656 -14.804688 13.078125 -14.640625 C 12.941406 -14.484375 12.75 -14.328125 12.5 -14.171875 L 6.328125 -10.15625 L 12.5 -6.109375 C 12.769531 -5.910156 12.96875 -5.738281 13.09375 -5.59375 C 13.226562 -5.445312 13.296875 -5.238281 13.296875 -4.96875 L 13.296875 -1.671875 C 13.296875 -1.503906 13.238281 -1.359375 13.125 -1.234375 C 13.007812 -1.117188 12.867188 -1.0625 12.703125 -1.0625 Z M 12.703125 -1.0625 "/></g></g></g><g fill="#000000" fill-opacity="1"><g transform="translate(72.459581, 196.968443)"><g><path d="M 2.375 -17.125 C 2.15625 -17.125 1.976562 -17.195312 1.84375 -17.34375 C 1.71875 -17.488281 1.65625 -17.664062 1.65625 -17.875 L 1.65625 -20.5625 C 1.65625 -20.769531 1.722656 -20.945312 1.859375 -21.09375 C 2.003906 -21.238281 2.175781 -21.3125 2.375 -21.3125 L 5.984375 -21.3125 C 6.203125 -21.3125 6.378906 -21.238281 6.515625 -21.09375 C 6.660156 -20.945312 6.734375 -20.769531 6.734375 -20.5625 L 6.734375 -17.875 C 6.734375 -17.664062 6.660156 -17.488281 6.515625 -17.34375 C 6.378906 -17.195312 6.203125 -17.125 5.984375 -17.125 Z M 2.375 0 C 2.175781 0 2.003906 -0.0703125 1.859375 -0.21875 C 1.722656 -0.363281 1.65625 -0.53125 1.65625 -0.71875 L 1.65625 -14.3125 C 1.65625 -14.53125 1.722656 -14.707031 1.859375 -14.84375 C 2.003906 -14.976562 2.175781 -15.046875 2.375 -15.046875 L 5.984375 -15.046875 C 6.203125 -15.046875 6.378906 -14.976562 6.515625 -14.84375 C 6.660156 -14.707031 6.734375 -14.53125 6.734375 -14.3125 L 6.734375 -0.71875 C 6.734375 -0.507812 6.660156 -0.335938 6.515625 -0.203125 C 6.378906 -0.0664062 6.203125 0 5.984375 0 Z M 2.375 0 "/></g></g></g><g fill="#000000" fill-opacity="1"><g transform="translate(81.422028, 196.968443)"><g><path d="M 2.40625 0 C 2.1875 0 2.003906 -0.0664062 1.859375 -0.203125 C 1.722656 -0.335938 1.65625 -0.507812 1.65625 -0.71875 L 1.65625 -19.8125 C 1.65625 -20.019531 1.722656 -20.191406 1.859375 -20.328125 C 2.003906 -20.460938 2.1875 -20.53125 2.40625 -20.53125 L 5.921875 -20.53125 C 6.140625 -20.53125 6.316406 -20.460938 6.453125 -20.328125 C 6.585938 -20.191406 6.65625 -20.019531 6.65625 -19.8125 L 6.65625 -10.15625 L 10.5 -14.546875 C 10.539062 -14.585938 10.613281 -14.65625 10.71875 -14.75 C 10.820312 -14.84375 10.929688 -14.914062 11.046875 -14.96875 C 11.160156 -15.019531 11.304688 -15.046875 11.484375 -15.046875 L 15.5625 -15.046875 C 15.726562 -15.046875 15.875 -14.976562 16 -14.84375 C 16.132812 -14.71875 16.203125 -14.5625 16.203125 -14.375 C 16.203125 -14.195312 16.132812 -14.039062 16 -13.90625 L 10.90625 -8.296875 L 16.71875 -1.09375 C 16.851562 -0.925781 16.921875 -0.785156 16.921875 -0.671875 C 16.921875 -0.472656 16.859375 -0.3125 16.734375 -0.1875 C 16.609375 -0.0625 16.445312 0 16.25 0 L 12.0625 0 C 11.8125 0 11.625 -0.0351562 11.5 -0.109375 C 11.375 -0.191406 11.222656 -0.316406 11.046875 -0.484375 L 6.65625 -5.921875 L 6.65625 -0.71875 C 6.65625 -0.53125 6.585938 -0.363281 6.453125 -0.21875 C 6.316406 -0.0703125 6.140625 0 5.921875 0 Z M 2.40625 0 "/></g></g></g><g fill="#000000" fill-opacity="1"><g transform="translate(99.086414, 196.968443)"><g><path d="M 1.265625 2.421875 C 1.117188 2.421875 0.984375 2.359375 0.859375 2.234375 C 0.734375 2.109375 0.671875 1.972656 0.671875 1.828125 C 0.671875 1.722656 0.6875 1.625 0.71875 1.53125 L 10.5 -22.015625 C 10.707031 -22.492188 11.0625 -22.734375 11.5625 -22.734375 L 14.3125 -22.734375 C 14.488281 -22.734375 14.632812 -22.671875 14.75 -22.546875 C 14.863281 -22.421875 14.921875 -22.28125 14.921875 -22.125 C 14.921875 -22.03125 14.898438 -21.9375 14.859375 -21.84375 L 5.03125 1.703125 C 4.84375 2.179688 4.488281 2.421875 3.96875 2.421875 Z M 1.265625 2.421875 "/></g></g></g><g fill="#000000" fill-opacity="1"><g transform="translate(115.247468, 196.968443)"><g><path d="M 2.3125 -1.0625 C 2.132812 -1.0625 1.988281 -1.117188 1.875 -1.234375 C 1.757812 -1.359375 1.703125 -1.503906 1.703125 -1.671875 L 1.703125 -4.96875 C 1.703125 -5.238281 1.769531 -5.445312 1.90625 -5.59375 C 2.039062 -5.738281 2.242188 -5.910156 2.515625 -6.109375 L 8.671875 -10.15625 L 2.515625 -14.171875 C 2.265625 -14.328125 2.066406 -14.484375 1.921875 -14.640625 C 1.773438 -14.804688 1.703125 -15.035156 1.703125 -15.328125 L 1.703125 -18.59375 C 1.703125 -18.789062 1.757812 -18.941406 1.875 -19.046875 C 1.988281 -19.148438 2.132812 -19.203125 2.3125 -19.203125 C 2.425781 -19.203125 2.582031 -19.144531 2.78125 -19.03125 L 13.328125 -11.859375 C 13.640625 -11.648438 13.859375 -11.457031 13.984375 -11.28125 C 14.109375 -11.101562 14.171875 -10.878906 14.171875 -10.609375 L 14.171875 -9.6875 C 14.171875 -9.414062 14.101562 -9.179688 13.96875 -8.984375 C 13.832031 -8.796875 13.617188 -8.609375 13.328125 -8.421875 L 2.78125 -1.25 C 2.582031 -1.125 2.425781 -1.0625 2.3125 -1.0625 Z M 2.3125 -1.0625 "/></g></g></g></svg>